<?xml version="1.0" standalone="no"?><!DOCTYPE svg PUBLIC "-//W3C//DTD SVG 1.1//EN" "http://www.w3.org/Graphics/SVG/1.1/DTD/svg11.dtd"><svg t="1538103344997" class="icon" style="" viewBox="0 0 1024 1024" version="1.1" xmlns="http://www.w3.org/2000/svg" p-id="5504" xmlns:xlink="http://www.w3.org/1999/xlink" width="48" height="48"><defs><style type="text/css"></style></defs><path d="M479.7 710.7h-0.6c-6.8-0.3-12.8-4.8-14.8-11.4l-97.5-312-55.5 135.6c-2.5 6.1-8.4 10.1-15 10.1h-63.9c-9 0-16.2-7.2-16.2-16.2s7.2-16.2 16.2-16.2h53l68.3-167.2c2.6-6.3 8.6-10 15.7-10.1 6.8 0.3 12.7 4.8 14.8 11.4l97.3 311.6 84-209.2c2.4-6.1 8.3-10.1 14.8-10.2 6.8 0.6 12.5 3.8 15 9.8l52 120.9 26.2-49.3c2.8-5.3 8.3-8.6 14.3-8.6h56c9 0 16.2 7.2 16.2 16.2s-7.2 16.2-16.2 16.2h-46.3L660 602.5c-2.9 5.5-9 8.6-15 8.6-6.2-0.3-11.7-4.1-14.2-9.8l-49.9-116-86.4 215.3c-2.2 6.1-8.2 10.1-14.8 10.1z" fill="" p-id="5505"></path><path d="M774.5 246c44.2 44.2 77.2 99 95.4 158.4l31.9-9.8C882 330 846.1 270.5 798.1 222.4 693.8 118.1 546 77.1 402.7 112.6l8.1 32.4c131.8-32.7 267.8 5.1 363.7 101z m-542 0l-23.6-23.6c-162.5 162.5-162.5 426.8 0 589.2l23.6-23.6c-149.4-149.5-149.4-392.6 0-542z m675.8 369.8l-32.5-7.9c-16.5 68-51.6 130.3-101.4 180.1-97.1 97.1-239.8 134.9-372.4 98.7l-8.8 32.2c144.1 39.4 299.3-1.7 404.8-107.3 54.2-54.1 92.4-121.8 110.3-195.8z m-39.1-62.6c20.6 20.6 54.1 20.6 74.7 0s20.6-54.1 0-74.7-54.1-20.6-74.6 0c-20.6 20.6-20.6 54.1-0.1 74.7z m60.3-60.3c12.7 12.7 12.7 33.3 0 45.9-12.7 12.7-33.3 12.7-45.9 0-12.7-12.7-12.7-33.3 0-45.9 12.7-12.6 33.3-12.6 45.9 0zM347.4 826c-20.6-20.6-54.2-20.6-74.8 0-20.6 20.6-20.6 54.2 0 74.8 20.6 20.6 54.2 20.6 74.8 0 20.7-20.6 20.7-54.2 0-74.8zM287 886.4c-12.7-12.7-12.7-33.3 0-46s33.3-12.7 46 0c12.7 12.7 12.7 33.3 0 46-12.6 12.7-33.3 12.7-46 0z m-13.9-679.1c20.6 20.6 54.2 20.6 74.8 0 20.6-20.6 20.6-54.2 0-74.8s-54.2-20.6-74.8 0c-20.6 20.7-20.6 54.2 0 74.8z m60.4-60.4c12.7 12.7 12.7 33.3 0 46-12.7 12.7-33.3 12.7-46 0-12.7-12.7-12.7-33.3 0-46 12.7-12.7 33.3-12.7 46 0z" fill="" p-id="5506"></path><path d="M818.2 407.5C703.3 136.2 432.8 192 430.1 192.7l-3.4-15.6c2.8-0.7 286.3-59.1 406.2 224.2l-14.7 6.2z" fill="" p-id="5507"></path></svg>