<?xml version="1.0" standalone="no"?><!DOCTYPE svg PUBLIC "-//W3C//DTD SVG 1.1//EN" "http://www.w3.org/Graphics/SVG/1.1/DTD/svg11.dtd"><svg t="1538103075780" class="icon" style="" viewBox="0 0 1024 1024" version="1.1" xmlns="http://www.w3.org/2000/svg" p-id="3651" xmlns:xlink="http://www.w3.org/1999/xlink" width="48" height="48"><defs><style type="text/css"></style></defs><path d="M711.8 312.1c51.3 51.3 94 106.2 127.2 161.2l24.2-36.8C830.1 384 789 332.2 740.4 283.6 569.6 112.9 359.1 33.9 217.4 74.5l32.8 32.8C376.5 83.4 559.7 160 711.8 312.1z m62.1-204.9l32.8-32.8c-71.3-20.4-160-10.6-252.4 26l42.6 26c64.5-21.9 125.5-28.9 177-19.2z m37.7 105c31.5 31.5 82.6 31.5 114.1 0s31.5-82.6 0-114.1-82.6-31.5-114.1 0-31.5 82.6 0 114.1z m28.6-85.6c15.8-15.7 41.3-15.7 57 0 15.8 15.8 15.8 41.3 0 57.1-15.7 15.8-41.3 15.8-57 0-15.8-15.8-15.8-41.3 0-57.1zM740.3 740C911 569.3 989.9 358.8 949.4 217.1l-32.8 32.8c23.8 126.3-52.7 309.5-204.8 461.6-53 53-109.8 96.8-166.7 130.4l35.7 25c54.8-33.8 108.9-76.3 159.5-126.9z m155.8-146.8c22.9 65.7 30.3 128 20.5 180.4l32.8 32.8c20.5-71.7 10.4-160.9-26.6-253.7l-26.7 40.5z m-84.5 218.1c-31.5 31.5-31.5 82.6 0 114.1s82.6 31.5 114.1 0 31.5-82.6 0-114.1-82.6-31.5-114.1 0z m85.6 85.6c-15.7 15.8-41.3 15.8-57 0-15.8-15.7-15.8-41.3 0-57 15.8-15.8 41.3-15.8 57 0 15.8 15.7 15.8 41.3 0 57z m-684.7-85.6c-31.5-31.5-82.6-31.5-114.1 0s-31.5 82.6 0 114.1 82.6 31.5 114.1 0 31.5-82.6 0-114.1zM184 896.9c-15.8 15.8-41.3 15.8-57 0-15.8-15.7-15.8-41.3 0-57 15.7-15.8 41.3-15.8 57 0 15.7 15.7 15.7 41.3 0 57z m66.2 19.4L217.4 949c70.8 20.3 158.7 10.7 250.3-25.2l-39-27.3c-65 22.4-126.6 29.6-178.5 19.8zM107.6 773.6C83.8 647.2 160.3 464.1 312.4 312c50.8-50.8 105-93.1 159.5-126.2l-38.1-23.3c-51.5 32.8-102.3 73.3-149.9 120.9-170.7 170.8-249.7 381.3-209.1 523l32.8-32.8z m104.9-561.4c31.5-31.5 31.5-82.6 0-114.1s-82.6-31.5-114.1 0-31.5 82.6 0 114.1 82.6 31.5 114.1 0z m-85.6-85.6c15.7-15.7 41.3-15.7 57 0 15.8 15.8 15.8 41.3 0 57.1-15.8 15.8-41.3 15.8-57 0-15.7-15.8-15.7-41.3 0-57.1z m185.5 584.9c-52-52.1-95.2-107.7-128.6-163.5l-22.6 39.3c33.1 52.5 74.2 104.2 122.7 152.8 170.7 170.7 381.2 249.6 522.8 209l-32.8-32.8c-126.3 23.8-309.4-52.8-461.5-204.8zM126.1 424.8c-21.5-63.7-28.2-124-18.6-175L74.7 217c-20.3 71.3-10.5 159.9 25.9 252l25.5-44.2zM421 698.3l277.7-189.2L421 325.5v372.8z m35.3-307.2l179.1 118.5-179.1 122V391.1z" fill="" p-id="3652"></path></svg>